<svg width="24px" height="24px" viewBox="0 0 24 24" version="1.1" xmlns="http://www.w3.org/2000/svg" xmlns:xlink="http://www.w3.org/1999/xlink">
    <g id="Page-1" stroke="none" stroke-width="1" fill="none" fill-rule="evenodd">
        <g id="iPhone-8" transform="translate(-234.000000, -1973.000000)" fill="#8A8A8A" fill-rule="nonzero">
            <g id="分组-4" transform="translate(-12.000000, 1965.000000)">
                <g id="分组-3" transform="translate(246.000000, 7.000000)">
                    <g id="条形码@3x" transform="translate(0.000000, 1.000000)">
                        <path d="M16.9230769,1.84615385 C16.5932933,1.84615386 16.2885607,1.67021639 16.1236688,1.38461539 C15.958777,1.0990144 15.958777,0.747139455 16.1236688,0.461538459 C16.2885607,0.175937462 16.5932933,-4.91415182e-09 16.9230769,7.10542736e-15 L20.6153846,7.10542736e-15 C22.4846561,7.10542736e-15 24,1.51534392 24,3.38461538 L24,7.07692308 C24,7.58672439 23.5867244,8.00000001 23.0769231,8.00000001 C22.5671218,8.00000001 22.1538461,7.58672439 22.1538461,7.07692308 L22.1538461,3.38461538 C22.1538461,2.5353846 21.4646154,1.84615385 20.6153846,1.84615385 L16.9230769,1.84615385 Z M22.1538461,16.9230769 C22.1538461,16.4132756 22.5671218,16 23.0769231,16 C23.5867244,16 24,16.4132756 24,16.9230769 L24,20.6153846 C24,22.4846561 22.4846561,24 20.6153846,24 L16.9230769,24 C16.4132756,24 16,23.5867244 16,23.0769231 C16,22.5671218 16.4132756,22.1538461 16.9230769,22.1538461 L20.6153846,22.1538461 C21.4646154,22.1538461 22.1538461,21.4646154 22.1538461,20.6153846 L22.1538461,16.9230769 Z M7.07692308,22.1538461 C7.58672439,22.1538461 8.00000001,22.5671218 8.00000001,23.0769231 C8.00000001,23.5867244 7.58672439,24 7.07692308,24 L3.38461538,24 C1.51534392,24 1.87883896e-16,22.4846561 0,20.6153846 L0,16.9230769 C-4.91415911e-09,16.5932933 0.175937462,16.2885607 0.461538459,16.1236688 C0.747139455,15.958777 1.0990144,15.958777 1.38461539,16.1236688 C1.67021639,16.2885607 1.84615386,16.5932933 1.84615385,16.9230769 L1.84615385,20.6153846 C1.84615385,21.4646154 2.53538463,22.1538461 3.38461538,22.1538461 L7.07692308,22.1538461 Z M1.84615385,7.07692308 C1.84615384,7.58672439 1.43287823,8 0.923076925,8 C0.413275622,8 7.59663853e-09,7.58672439 7.10542736e-15,7.07692308 L7.10542736e-15,3.38461538 C6.72965956e-15,1.51534392 1.51534392,3.75767793e-16 3.38461538,0 L7.07692308,0 C7.58672439,7.59663124e-09 8,0.413275622 8,0.923076925 C8,1.43287823 7.58672439,1.84615384 7.07692308,1.84615385 L3.38461538,1.84615385 C2.5353846,1.84615385 1.84615385,2.53538463 1.84615385,3.38461538 L1.84615385,7.07692308 Z M5.53846155,6.76923077 L5.53846155,17.2307692 C5.53846156,17.5605529 5.36252409,17.8652855 5.0769231,18.0301773 C4.7913221,18.1950691 4.43944715,18.1950691 4.15384616,18.0301773 C3.86824516,17.8652855 3.69230769,17.5605529 3.6923077,17.2307692 L3.6923077,6.76923077 C3.69230772,6.25942947 4.10558333,5.84615387 4.61538463,5.84615387 C5.12518592,5.84615387 5.53846154,6.25942947 5.53846155,6.76923077 Z M9.23076922,6.76923077 L9.23076922,17.2307692 C9.23076922,17.7405705 8.81749361,18.1538462 8.3076923,18.1538462 C7.79789099,18.1538462 7.38461537,17.7405705 7.38461537,17.2307692 L7.38461537,6.76923077 C7.38461537,6.25942946 7.79789099,5.84615384 8.3076923,5.84615384 C8.81749361,5.84615384 9.23076922,6.25942946 9.23076922,6.76923077 Z M12.9230769,6.76923077 L12.9230769,17.2307692 C12.9230769,17.7405705 12.5098013,18.1538462 12,18.1538462 C11.4901987,18.1538462 11.0769231,17.7405705 11.0769231,17.2307692 L11.0769231,6.76923077 C11.0769231,6.25942946 11.4901987,5.84615384 12,5.84615384 C12.5098013,5.84615384 12.9230769,6.25942946 12.9230769,6.76923077 Z M16.6153846,6.76923077 L16.6153846,17.2307692 C16.6153846,17.7405705 16.202109,18.1538462 15.6923077,18.1538462 C15.1825064,18.1538462 14.7692308,17.7405705 14.7692308,17.2307692 L14.7692308,6.76923077 C14.7692308,6.25942946 15.1825064,5.84615384 15.6923077,5.84615384 C16.202109,5.84615384 16.6153846,6.25942946 16.6153846,6.76923077 Z M20.3076923,6.76923077 L20.3076923,17.2307692 C20.3076923,17.7405705 19.8944167,18.1538462 19.3846154,18.1538462 C18.8748141,18.1538462 18.4615384,17.7405705 18.4615384,17.2307692 L18.4615384,6.76923077 C18.4615384,6.25942946 18.8748141,5.84615384 19.3846154,5.84615384 C19.8944167,5.84615384 20.3076923,6.25942946 20.3076923,6.76923077 Z" id="形状"></path>
                    </g>
                </g>
            </g>
        </g>
    </g>
</svg>