<?xml version="1.0" encoding="UTF-8"?>
<svg width="100px" height="100px" viewBox="0 0 100 100" version="1.1" xmlns="http://www.w3.org/2000/svg" xmlns:xlink="http://www.w3.org/1999/xlink">
    <!-- Generator: Sketch 52.5 (67469) - http://www.bohemiancoding.com/sketch -->
    <title>kd3</title>
    <desc>Created with Sketch.</desc>
    <g id="kd3" stroke="none" stroke-width="1" fill="none" fill-rule="evenodd">
        <g transform="translate(0.000000, 23.000000)" fill="#D81E06" fill-rule="nonzero" id="形状">
            <path d="M47.1466244,33.9390057 C47.0673451,33.230297 47.0898676,32.4957624 47.0898676,31.7720387 L47.0898676,18.2984651 L56.9670448,18.2984651 L56.9670448,9.31578245 C53.6978757,9.31578245 50.4246024,9.30827494 47.1637415,9.30827494 L47.1637415,0.151418085 C46.7531507,0.100108209 46.3399667,0.0722685007 45.926204,0.0680347017 L45.8844622,0.0714381051 C40.7395173,0.12679346 36.4283061,4.22559226 36.3052831,9.30006673 L36.3565343,36.4564231 C36.3319097,40.2954621 37.9671449,43.9452119 40.6964743,46.2447114 C44.7330108,49.65332 51.5965744,50.6946613 57.0258036,46.5296964 L57.0196975,37.939306 C52.266244,41.0006673 47.3495273,39.3524191 47.1466244,33.9390057 Z M23.4063842,26.0469136 C19.8836614,24.7150817 16.0500278,23.8657324 12.5786564,22.5544211 C11.4450228,22.1203871 10.4657435,20.8521188 10.7097876,19.4184852 C10.9748526,17.8720387 12.0265043,16.9830497 13.5258036,16.8764431 C18.1930708,16.5600267 25.2486264,18.0517184 28.6667445,19.1902569 L28.6667445,11.0275943 C22.6006785,8.00517184 10.6339117,6.40136804 4.55413191,10.8704371 C1.48446224,13.1432099 -0.20542765,17.1770437 0.119797576,20.7646313 C0.601579357,25.7579246 3.45523301,28.7571238 7.09677455,30.2871538 C11.2829607,31.987354 15.4110889,32.8777444 19.7504282,34.611378 C21.8408186,35.67334 21.9371149,38.9997664 19.4039818,39.9524191 C14.6116895,41.7626293 2.13771549,37.7828495 0.423200979,36.888355 L0.423200979,46.187354 C1.81459237,47.1070737 31.1378156,56.7505172 31.1378156,36.0730397 C31.0927705,31.8314982 28.8068847,28.0095762 23.4063842,26.0470137 L23.4063842,26.0469136 Z M79.8948727,9.30897564 C68.8210989,9.31648315 59.8617395,18.2854521 59.8508286,29.350317 C59.8508286,40.414381 68.8259037,49.3929596 79.8948727,49.3929596 C90.9596374,49.3929596 99.9313091,40.414381 99.925203,29.350317 C99.9258036,18.2916583 90.960238,9.30897564 79.8947726,9.30897564 L79.8948727,9.30897564 Z M79.8948727,39.8404071 C74.7785563,39.8404071 70.6182961,35.1410077 70.6182961,29.3496163 C70.6182961,23.5588255 74.7785563,18.8629296 79.8947726,18.8588255 C85.0048827,18.8588255 89.1610388,23.562329 89.1610388,29.3496163 C89.1610388,35.1369036 85.0048827,39.8404071 79.8947726,39.8404071 L79.8948727,39.8404071 Z"></path>
        </g>
    </g>
</svg>