<?xml version="1.0" encoding="UTF-8"?>
<svg width="100px" height="100px" viewBox="0 0 100 100" version="1.1" xmlns="http://www.w3.org/2000/svg" xmlns:xlink="http://www.w3.org/1999/xlink">
    <!-- Generator: Sketch 52.5 (67469) - http://www.bohemiancoding.com/sketch -->
    <title>kd5</title>
    <desc>Created with Sketch.</desc>
    <g id="kd5" stroke="none" stroke-width="1" fill="none" fill-rule="evenodd">
        <g transform="translate(0.000000, 31.000000)" fill="#0F65A2" fill-rule="nonzero" id="形状">
            <path d="M99.9234627,11.4004642 C99.3493721,11.6235926 90.7612548,11.5910531 89.5782097,11.4794888 C89.3783238,11.1912814 89.2667597,10.765943 89.0529283,10.4498445 C88.7298571,9.97569673 88.5044045,10.0268303 88.3974888,9.46900945 L99.7049829,9.47365796 C99.8769777,10.0175333 100.090809,10.9170195 99.9234627,11.4004642 Z M86.0895049,0.00929702035 C88.6856963,-0.0139455305 91.0727048,0.246370894 93.3899857,1.18072086 C93.7827846,1.33644586 93.9966159,1.3550399 94.1198013,1.70832645 C92.0558641,1.72459622 78.3962253,1.88961824 77.9592656,1.61070778 C79.0865286,0.725167115 84.239399,0.0278910247 86.0895049,0.00929702035 Z M50.0473033,30.9358163 C48.055418,31.0334349 38.572463,30.7243092 37.6938951,31.0497047 L37.3522298,31.7376838 C37.2917992,32.4884177 37.3220145,31.9677849 37.482388,32.1746435 L48.6132388,32.160698 C49.705638,32.1746435 49.3430545,32.3838263 48.9456071,33.1856938 C48.7805851,33.5134136 48.7038847,33.9666431 48.3389769,34.1502591 C47.9531508,34.3524692 39.0559077,34.2664718 37.2453141,34.2385807 C36.2668033,34.2246352 36.4248526,34.0735587 35.915841,34.6592707 C35.8251951,35.0567181 35.8902742,34.8126714 35.7577918,35.0753121 L35.704334,35.4564897 L47.6905101,35.4564897 L47.5580277,36.1607385 C47.3256023,36.3559758 47.3813844,36.4071094 47.2279836,36.7022896 C46.9862613,37.1717889 47.2256594,36.9812001 46.8258878,37.1531948 L34.8350631,37.1508706 L0.0340129724,37.118331 L2.21881141,32.6929521 C2.8858722,31.3402364 3.5994181,29.4436455 4.61046842,28.4140011 L22.7419713,10.0268303 C23.1417429,9.62241017 24.150469,8.78567885 24.2527362,8.29061283 L10.3351052,8.26272177 C10.342078,7.55614866 13.9353741,1.11796602 13.9516439,0.404420131 C14.2073118,0.183616025 14.0143987,0.515984302 14.2537969,0.0185940407 L40.6666156,0.0185940407 L75.36075,0.00697274709 C75.2840496,0.55084811 74.9354116,1.25974546 74.6216373,1.68275967 L39.9460969,1.71762347 L39.7252928,2.09647682 L39.4928674,2.52878797 C39.4301126,3.21909132 39.4696249,2.77980738 39.6137286,2.95645065 L73.8918217,2.94947791 C73.91274,3.60956595 73.7523665,3.20514582 73.647775,3.90242191 C74.6332586,3.6630238 74.4426698,2.93553238 76.0347836,2.9448294 L93.1831271,2.94947791 C93.9501308,2.94947791 95.9373677,2.75191635 96.4138397,3.13774244 C96.7229654,3.39108608 97.8432557,4.49510658 97.8479042,5.01109092 C95.0425301,5.18773419 86.4637098,5.02038794 83.0145173,5.0203879 L53.0967241,5.0203879 C51.0537052,5.0203879 38.9745589,4.74380171 38.1703671,5.18076141 L37.949563,5.66885469 L37.8077835,6.16856922 L98.6846355,6.18483899 C98.8868456,6.55671959 99.5980672,7.88851693 99.2959142,8.16277889 C99.0611646,8.38358299 52.234426,8.25807329 44.3482334,8.25807326 C42.7933077,8.25807326 37.5149276,8.0000811 36.5131742,8.402177 C36.1180511,8.98324041 27.4555577,17.6968674 26.7582816,18.4011163 C25.1196828,20.0513364 23.5554601,21.6620442 21.8517821,23.3703706 C21.0522388,24.1768866 17.4240789,28.046769 16.8616095,28.3489219 C16.7035602,28.6092384 16.701236,28.5557805 16.6175629,28.9532279 L50.9212227,28.9299854 C50.9281955,29.4343484 50.2588104,30.5778812 50.0473033,30.9358163 Z M64.4646488,17.9827506 C64.4274608,17.5109271 64.8527992,16.3673943 65.0410637,15.979244 L74.9144933,15.9652984 C74.8819537,16.4301492 74.398509,17.6620036 74.2265142,17.9618323 L64.4646488,17.9827506 Z M73.8871732,19.2308748 C73.903443,19.6864285 73.7732847,20.1094427 73.6965844,20.5440782 C73.5826959,21.211139 73.5594534,21.23903 72.8552045,21.2413543 C71.0027744,21.2552998 64.6947499,21.3296759 63.6674298,21.1902207 C63.6465115,20.7462882 63.825479,19.5121095 64.0857955,19.3075752 C64.5552947,19.0542315 72.8017467,19.1007166 73.8871732,19.2308748 Z M65.6012089,14.6985802 C65.6476939,14.110544 66.1381114,13.1413302 66.4146976,12.7252888 L76.5112556,12.7136676 C76.4299067,13.1785183 75.7512246,14.2151354 75.4792869,14.6846347 L65.6012089,14.6985802 Z M74.2637023,11.4492735 C72.0463642,11.4492735 69.322339,11.591053 67.1700801,11.4283553 C67.2398077,10.8775072 67.9905416,9.90829339 68.3043159,9.48760345 L79.5072185,9.47133368 C79.3305753,10.0616941 79.346845,9.72932584 78.5868141,10.4126564 C77.1085888,11.7444538 78.4543316,11.4492736 74.2637023,11.4492735 Z M52.0112977,26.9497213 C51.6766052,27.6586186 51.7858451,27.7306705 50.8538194,27.7213735 C47.8043985,27.6888339 41.8101484,27.8887197 39.506813,27.6888339 C39.5323798,27.3146291 40.1041461,25.9967772 40.4458114,25.7736489 C40.8781226,25.5574933 51.1466753,25.6318694 52.4970667,25.6899758 C52.5040394,26.2408239 52.2297775,26.4848705 52.0112977,26.9497213 Z M53.2106126,24.4465 L41.147736,24.4627698 C41.1500603,24.0374314 41.7590148,22.8590348 41.9774946,22.4918027 C44.5318493,22.3151594 51.1234328,22.4313721 54.1240443,22.4522904 C54.112423,22.9241139 53.4662805,24.0908892 53.2106126,24.4465 Z M54.7562412,21.2250845 L42.7166073,21.2274087 C42.7398498,20.7462882 43.4301531,19.5260551 43.6253904,19.2099565 L55.7045367,19.2006595 C55.6696729,19.7793987 55.0398002,20.8717979 54.7562412,21.2250845 Z M56.4529464,17.9339413 L44.3575303,17.9827506 C44.327315,17.4040114 44.9943758,16.2720999 45.2639893,16.0582686 C45.8636467,15.7793581 55.6998882,15.9397316 57.2571382,15.9606499 C57.2571382,16.5510104 56.7411539,17.4807118 56.4529464,17.9339413 Z M58.3797527,14.0222223 C58.052033,14.7218227 58.1566244,14.7659835 57.2408684,14.7566865 C54.0310741,14.7218227 48.5365384,14.9240328 45.9240773,14.7311197 C45.9147803,14.266269 46.6190292,13.0599814 46.8119422,12.7369101 L58.9073583,12.7136676 C58.8515762,13.2435974 58.5912598,13.5759657 58.3797527,14.0222223 Z M59.6209042,11.4283553 L47.5394336,11.4423008 C47.5696489,10.9425863 48.1832519,9.84553852 48.441244,9.48760345 L60.4692568,9.47365796 C60.4390415,10.0779639 59.9021389,11.0309079 59.6209042,11.4283553 Z M64.3205451,22.4383449 C65.9823865,22.4639117 72.7947739,22.2524046 73.3107582,22.5545576 C73.327028,22.5778001 73.3432978,22.5917456 73.3479463,22.6335822 C73.3549191,22.6823915 73.3781616,22.6986613 73.3804859,22.7242281 L73.4292952,24.4465 L63.3815466,24.4627698 C63.0166388,22.1059766 63.7836425,22.4290479 64.3205451,22.4383449 Z M63.4071134,25.7085698 L73.6686933,25.7155426 L74.73785,27.7051037 C72.0486885,27.8399104 67.9068685,27.6934824 64.9202025,27.7144007 C63.0979877,27.7236977 63.3768981,27.7376432 63.4071134,25.7085698 Z M85.2458008,35.7632911 C84.8320837,35.7586426 83.9233005,36.1398202 83.4445043,36.2908967 C80.3532469,37.2763803 75.9115981,37.392593 72.7180736,36.9114725 C71.2073087,36.6906684 69.5199005,35.8121005 69.1805595,35.8330187 C69.1085077,35.2798464 69.2130991,35.4239501 69.8731871,35.4285986 C74.22419,35.4797322 80.2300614,35.5657296 84.4439333,35.4355714 C85.5154142,35.4030318 85.2039643,35.4774079 85.2458008,35.7632911 Z M90.2452705,32.7510584 L88.6438597,33.8783214 C87.8187496,34.4477636 86.3382001,34.1920957 85.2597464,34.1920957 L67.1654316,34.1851229 C66.6936081,34.1084226 65.4896447,32.9207289 65.3804048,32.2281013 L90.6217996,32.2118315 C90.5102354,32.7045733 90.6659604,32.4186901 90.2452705,32.7510584 Z M92.0047305,30.9474376 L80.2928163,30.9497618 C75.1538914,30.9497618 69.6221677,31.1496476 64.5343764,30.9358163 C64.3065996,30.5732327 63.7999122,29.5296428 63.8952066,28.9462552 L93.8641334,28.9299854 C93.8525122,29.3646208 92.622982,30.8637644 92.0047305,30.9474376 Z M94.6102189,27.716725 L83.8187091,27.7213735 C83.946543,27.258847 83.8442759,27.4819754 84.1882654,27.2077134 C86.593868,25.2948527 84.9482964,25.6783545 88.9250944,25.6783545 C91.2400511,25.6783545 93.8478637,25.5667903 96.1256322,25.6923 C96.1070382,25.994453 95.363277,27.6400246 94.6102189,27.716725 Z M96.8600964,24.4534728 L86.8239691,24.4604456 C86.8634814,24.0095404 87.6072426,22.8892501 87.8698832,22.4569389 L97.6712609,22.4453177 C97.6828822,23.0542721 97.1087915,24.0932135 96.8600964,24.4534728 Z M98.2407031,21.2018419 L88.3928403,21.2274087 L89.022713,19.205308 L98.8426848,19.1983353 C98.8403605,19.6817801 98.4173464,20.8857435 98.2407031,21.2018419 Z M99.5701762,16.5812257 C99.4934758,16.9809973 99.3819116,17.6689764 99.2540777,17.9292928 L89.4271332,17.9850749 C89.34346,17.4249297 89.5875067,16.2418846 89.8129593,15.9234618 L98.991437,15.9025436 C99.6770919,15.9095163 99.6770919,16.0001622 99.5701762,16.5812257 Z M99.8026016,14.6683649 L89.8571201,14.6985802 L89.801338,12.7183161 L99.9838933,12.7206403 L99.8026016,14.6683649 Z"></path>
        </g>
    </g>
</svg>