<?xml version="1.0" encoding="UTF-8"?>
<svg width="100px" height="100px" viewBox="0 0 100 100" version="1.1" xmlns="http://www.w3.org/2000/svg" xmlns:xlink="http://www.w3.org/1999/xlink">
    <!-- Generator: Sketch 52.5 (67469) - http://www.bohemiancoding.com/sketch -->
    <title>kd6</title>
    <desc>Created with Sketch.</desc>
    <g id="kd6" stroke="none" stroke-width="1" fill="none" fill-rule="evenodd">
        <g transform="translate(0.000000, 4.000000)" id="路径">
            <path d="M11.125,55.1401515 C17.6325758,57.5265152 22.5833333,58.0871212 25.9810606,56.8257576 C30.0340909,48.6666667 32.0643939,43.6931818 43.0113636,24.9734848 C50.3030303,12.4924242 59.0568182,4.29166667 69.2613636,0.371212121 L29.2083333,0.371212121 C23.9356061,1.93560606 17.905303,8.3030303 11.125,19.469697 C4.34090909,30.6363636 0.723484848,39.0227273 0.268939394,44.6363636 C0.996212121,49.25 4.61742424,52.7537879 11.125,55.1401515 Z" fill="#002146"></path>
            <path d="M50.7424242,16.6401515 C57.3143939,24.719697 61.9962121,31.0340909 64.7878788,35.5909091 C68.9772727,42.4242424 74.9015152,55.6439394 74.9015152,57.4166667 C81.0340909,57.3939394 85.8712121,56.5643939 89.4166667,54.9280303 C94.7310606,52.469697 98.125,49.719697 99.8977273,46.2727273 C99.7954545,41.7310606 96.5113636,32.6969697 89.4166667,21.3409091 C84.6856061,13.7727273 79.4545455,7.10227273 73.7272727,1.32954545 C69.2159091,1.26136364 64.9810606,2.77651515 61.0189394,5.88257576 C57.0916667,8.9530303 53.630303,12.5772727 50.7424242,16.6401515 Z" fill="#D90307"></path>
            <path d="M81.6098485,58.1439394 C75.3068182,58.8030303 70.6628788,59.1287879 67.6704545,59.1287879 L50.3522727,74.8068182 L65.125,90.5416667 C70.2083333,89.8560606 74.1628788,88.1818182 76.9848485,85.5227273 C79.8068182,82.8636364 87.4583333,70.6515152 99.9469697,48.8825758 C94.030303,54.3939394 87.9166667,57.4848485 81.6098485,58.1439394 Z" fill="#002146"></path>
            <path d="M18.6931818,58.2424242 C12.3901515,57.5795455 6.27651515,54.4962121 0.356060606,48.9810606 C12.844697,70.75 20.5,82.9621212 23.3219697,85.6212121 C26.1439394,88.280303 30.094697,89.9545455 35.1818182,90.6363636 L49.9545455,74.9015152 L32.6325758,59.2272727 C29.6439394,59.2272727 25,58.8977273 18.6931818,58.2424242 Z" fill="#D90307"></path>
        </g>
    </g>
</svg>