<?xml version="1.0" standalone="no"?><!DOCTYPE svg PUBLIC "-//W3C//DTD SVG 1.1//EN" "http://www.w3.org/Graphics/SVG/1.1/DTD/svg11.dtd"><svg t="1566454516011" class="icon" viewBox="0 0 1292 1024" version="1.1" xmlns="http://www.w3.org/2000/svg" p-id="3136" xmlns:xlink="http://www.w3.org/1999/xlink" width="252.34375" height="200"><defs><style type="text/css"></style></defs><path d="M234.057143 1019.125898v-68.26249c0-24.383041-17.065623-43.85439-41.448663-43.85439a43.14019 43.14019 0 0 0-36.574561 19.496409 38.842459 38.842459 0 0 0-34.131245-19.496409c-12.19152 0-21.939725 2.430786-31.687929 17.053093v-12.178991H65.831704v107.267837H90.214745v-58.514285c0-19.508939 9.748204-29.257143 26.813826-29.257143 14.622307 0 24.383041 9.748204 24.383041 29.257143v58.514285h24.383041v-58.514285c0-19.508939 12.19152-29.257143 26.813827-29.257143 17.065623 0 24.383041 9.748204 24.38304 29.257143v58.514285z m346.211612-107.267837h-36.574561v-31.700459h-24.383041v31.700459H497.434078v21.939724h21.939724v48.766082c0 24.370511 9.760734 39.005347 36.574561 39.005347 9.760734 0 21.939725-2.443316 29.257143-7.317418l-7.317418-19.508939c-7.304888 4.886632-14.622307 7.317418-19.496409 7.317418-12.19152 0-14.634836-7.317418-14.634836-19.496408v-48.766082h36.574561z m195.051796-2.505966c-12.19152 0-21.939725 7.317418-29.257143 14.622307v-12.178991H721.717957v107.267838h24.38304v-60.882423c0-17.078152 7.317418-26.826357 21.939725-26.826357 4.874102 0 9.748204 0 14.634836 2.505965l7.304889-21.939724c-2.430786-2.505965-9.748204-2.505965-14.622307-2.505965z m-295.014745 9.748205a84.275607 84.275607 0 0 0-43.85439-12.178991c-26.813827 0-43.85439 12.178991-43.854389 34.118715 0 17.078152 12.19152 29.269673 36.574561 31.700459l9.748204 4.874103c12.19152 2.505965 17.065623 4.886632 17.065622 12.19152s-7.317418 12.19152-24.38304 12.19152-26.889006-4.811453-34.193894-12.141401l-12.191521 19.508939c12.19152 9.748204 29.257143 14.622307 46.360355 14.622306 29.269673 0 48.766081-14.622307 48.766082-34.131245s-14.622307-29.257143-36.574561-31.687929l-12.191521-2.505965c-9.748204 0-17.065623-2.443316-17.065622-9.748204s7.317418-12.19152 19.508938-12.191521 26.826357 4.874102 34.131245 9.748205z m616.843316-9.748205c-12.19152 0-21.939725 7.317418-29.257143 14.622307v-12.178991h-24.38304v107.267838h24.38304v-60.882423c0-17.078152 7.317418-26.826357 21.939725-26.826357 4.874102 0 9.748204 0 14.634836 2.505965l7.304889-21.939724c-2.430786-2.505965-9.748204-2.505965-14.622307-2.505965z m-297.445531 56.146149c0 31.687929 21.939725 56.07097 56.07097 56.07097 17.065623 0 26.826357-4.874102 39.017877-12.191521L882.600918 989.856225c-9.760734 7.317418-17.078152 9.760734-26.826357 9.760734-17.065623 0-31.687929-12.19152-31.687929-34.131245 0-19.508939 12.19152-34.143775 31.687929-34.143775 9.748204 0 19.508939 2.505965 26.826357 9.748205l12.19152-19.496409c-12.19152-9.748204-21.952255-12.19152-39.017877-12.19152-34.131245 0-56.07097 21.939725-56.07097 56.083499z m216.991521 0v-53.640183H992.36219v12.17899c-7.317418-9.748204-17.065623-14.622307-34.131245-14.622306-29.257143 0-53.640184 24.383041-53.640183 56.083499s24.383041 56.07097 53.640183 56.07097c14.622307 0 26.813827-7.317418 34.131245-14.634837v12.191521h24.383041z m-87.70878 0c0-19.508939 12.178991-34.143775 31.687929-34.143775S992.36219 946.001835 992.36219 965.498244s-12.19152 34.131245-31.700459 34.131245-31.687929-17.065623-31.687929-34.131245zM650.974561 909.414745c-31.687929 0-53.640184 21.939725-53.640184 56.083499s21.952255 56.07097 53.640184 56.07097c17.065623 0 29.257143-4.874102 43.85439-14.634837l-12.153931-17.078152c-9.760734 7.317418-19.508939 12.19152-31.700459 12.19152-14.634836 0-29.257143-7.317418-31.687929-26.813826h78.010694v-9.748205c4.874102-34.143775-17.065623-56.0835-46.360354-56.083499z m0 19.508938c14.622307 0 24.383041 9.748204 26.826357 26.813827h-53.640184c2.430786-17.065623 9.748204-26.813827 26.813827-26.813827z m577.825439 36.574561v-97.532163h-24.370511v56.07097c-7.317418-9.748204-17.065623-14.622307-34.143775-14.622306-29.244613 0-53.627654 24.383041-53.627653 56.083499s24.383041 56.07097 53.627653 56.07097c14.634836 0 26.826357-7.317418 34.143775-14.634837v12.191521h24.370511z m-85.328113 0c0-19.508939 12.19152-34.143775 31.700459-34.143775s31.687929 14.634836 31.687929 34.143775-12.19152 34.131245-31.687929 34.131245-31.700459-17.065623-31.700459-34.131245z m-777.763866 0v-53.640183h-24.370511v12.17899c-7.317418-9.748204-17.065623-14.622307-34.131245-14.622306-29.269673 0-53.640184 24.383041-53.640184 56.083499s24.370511 56.07097 53.640184 56.07097c14.622307 0 26.813827-7.317418 34.131245-14.634837v12.191521h24.370511z m-85.328113 0c0-19.508939 12.19152-34.143775 31.700459-34.143775s31.687929 14.634836 31.687929 34.143775-12.19152 34.131245-31.687929 34.131245-31.700459-17.065623-31.700459-34.131245z m987.437969 36.562031h4.874102c2.505965 0 2.505965 0 2.505965 2.505965l2.430786 2.430787v9.760734c0 2.430786 0 2.430786-2.430786 2.430786l-2.505965 2.443316h-9.760734a2.380667 2.380667 0 0 1-2.430786-2.443316l-2.430786-2.430786v-9.760734a2.380667 2.380667 0 0 1 2.430786-2.430787l2.430786-2.505965z m0 19.508939h2.430786a2.393197 2.393197 0 0 0 2.505965-2.443316 2.380667 2.380667 0 0 1 2.505965-2.430786v-4.886632a2.380667 2.380667 0 0 0-2.505965-2.430787 2.393197 2.393197 0 0 1-2.505965-2.505965h-4.861572a2.405727 2.405727 0 0 0-2.505965 2.505965c0 2.430786 0 2.430786-2.430786 2.430787v4.886632a2.380667 2.380667 0 0 0 2.430786 2.430786c2.505965 0 2.505965 0 2.505965 2.443316z m0-12.191521h2.430786v4.874103c0 2.443316 0 0-2.430786 0l2.430786 4.874102h-4.861572v-9.748205z m0 0z m0 0" fill="" p-id="3137"></path><path d="M470.557602 92.645531h348.654928v636.352254H470.557602z" fill="#FF5F00" p-id="3138"></path><path d="M492.497326 409.6c0-129.220092 58.514286-243.805347 153.603133-319.385255C577.825439 36.574561 492.497326 2.505965 399.851796 2.505965 177.986173 4.874102 0 185.291061 0 409.6s177.986173 404.713368 399.851796 404.713368c92.645531 0 177.923524-31.687929 246.248663-87.708779a403.560624 403.560624 0 0 1-153.603133-317.004589z m0 0" fill="#EB001B" p-id="3139"></path><path d="M1292.200918 409.6c0 224.283879-177.923524 404.713368-399.851796 404.713368-92.645531 0-177.923524-31.687929-246.248663-87.708779 92.645531-73.199241 153.603132-190.215283 153.603132-319.385256S741.176776 163.351337 646.100459 87.771429C714.362949 34.131245 799.703591 0 892.349122 0c221.865623 4.874102 399.851796 185.291061 399.851796 409.6z m-39.017877 251.122765v-12.19152h4.886632v-2.430786h-12.20405v2.430786h4.886632v12.19152z m26.826356 0v-14.622306h-4.874102l-4.886632 12.19152-4.861572-12.19152h-4.886632v14.622306h2.430786v-12.19152l4.886632 9.760734h2.430786l4.886632-9.760734v12.19152z m0 0" fill="#F79E1B" p-id="3140"></path></svg>