<?xml version="1.0" standalone="no"?><!DOCTYPE svg PUBLIC "-//W3C//DTD SVG 1.1//EN" "http://www.w3.org/Graphics/SVG/1.1/DTD/svg11.dtd"><svg t="1566356465903" class="icon" viewBox="0 0 1024 1024" version="1.1" xmlns="http://www.w3.org/2000/svg" p-id="3547" xmlns:xlink="http://www.w3.org/1999/xlink" width="200" height="200"><defs><style type="text/css"></style></defs><path d="M146.773333 679.253333c0 44.373333 30.72 112.64 167.253334 112.64s197.973333-167.253333 197.973333-167.253333-71.68-85.333333-197.973333-85.333333-167.253333 95.573333-167.253334 139.946666z" fill="#00AAEF" p-id="3548"></path><path d="M764.586667 426.666667c-17.066667 75.093333-85.333333 167.253333-85.333334 167.253333 30.72 3.413333 310.613333 85.333333 310.613334 85.333333V146.773333C989.866667 85.333333 938.666667 34.133333 877.226667 34.133333H146.773333C85.333333 34.133333 34.133333 85.333333 34.133333 146.773333v730.453334C34.133333 938.666667 85.333333 989.866667 146.773333 989.866667h730.453334c61.44 0 112.64-51.2 112.64-112.64v-27.306667c-143.36-78.506667-334.506667-153.6-365.226667-167.253333-13.653333 6.826667-119.466667 197.973333-310.613333 197.973333s-225.28-136.533333-225.28-225.28c0-47.786667 40.96-167.253333 225.28-167.253333 153.6 0 252.586667 54.613333 252.586666 54.613333 54.613333-27.306667 71.68-78.506667 78.506667-112.64H259.413333V375.466667h197.973334V314.026667H201.386667V259.413333h252.586666V146.773333h112.64v112.64H819.2v54.613334h-252.586667v54.613333h197.973334v58.026667z" fill="#00AAEF" p-id="3549"></path></svg>