<svg width="24px" height="24px" viewBox="0 0 24 24" version="1.1" xmlns="http://www.w3.org/2000/svg" xmlns:xlink="http://www.w3.org/1999/xlink">
    <g id="Page-1" stroke="none" stroke-width="1" fill="none" fill-rule="evenodd">
        <g id="iPhone-8" transform="translate(-50.000000, -1974.000000)" fill="#8A8A8A" fill-rule="nonzero">
            <g id="分组-4" transform="translate(-12.000000, 1965.000000)">
                <g id="分组-2" transform="translate(62.000000, 7.000000)">
                    <g id="二维码-(1)" transform="translate(0.000000, 2.000000)">
                        <path d="M0.742096767,0 L10.3542804,0 C11.3326667,0.096073903 11.0963772,1.79214781 11.0963772,2.89699769 L11.0963772,8.14780601 C11.0963772,9.2896074 11.3142066,10.6882217 10.5481117,11.0115473 C10.0496885,11.2240185 8.70948389,11.0762125 8.06337974,11.0762125 L2.96838705,11.0762125 C1.78878549,11.0762125 0.18090917,11.3533487 4.88498131e-14,10.3445727 L4.88498131e-14,0.731639714 C0.110484356,0.379468981 0.388602458,0.105269905 0.742096767,0 Z M2.06384124,2.16351039 L2.06384124,9.0069284 L8.99930775,9.0069284 L8.99930775,2.06928405 L2.09522345,2.06928405 C2.0583032,2.07482679 2.06199524,2.11916857 2.06384124,2.16351039 Z M13.6438736,0 L23.2560572,0 C23.6481821,0.119303082 23.9368917,0.453540988 23.998154,0.859122394 L23.998154,10.2170901 C23.9095454,10.6050808 23.7027921,10.9376443 23.3206676,11.0448037 C22.6930236,11.2184758 21.6518729,11.0762125 20.9023921,11.0762125 L15.9661565,11.0762125 C15.2222137,11.0762125 14.1201446,11.2314088 13.5146527,11.0448037 C12.6617952,10.7806005 12.9017768,9.13810625 12.9017768,7.98891455 L12.9017768,3.08729793 C12.9017768,1.76073903 12.6064149,0.186605097 13.6438736,0 Z M14.967464,2.16351039 L14.967464,9.0069284 L21.9010845,9.0069284 L21.9010845,2.06928405 L14.9988462,2.06928405 C14.961926,2.07482679 14.963772,2.11916857 14.967464,2.16351039 Z M5.22421352,4.16997691 C6.18967772,3.98891454 6.9483886,4.63371825 6.9650027,5.50577368 C6.98715485,6.65681294 5.7964772,7.29053118 4.86793325,6.81200924 C3.80832246,6.26512703 3.87847089,4.41939954 5.22421352,4.16997691 Z M18.1259903,4.16997691 C20.4002769,3.75057738 20.3578186,7.30531179 18.1259903,6.93949192 C16.7045612,6.7048499 16.6602569,4.43972287 18.1259903,4.16812934 L18.1259903,4.16997691 Z M10.28967,24 L0.773478971,24 C0.395449984,23.9055073 0.0989439496,23.6122914 0,23.2351039 L0,13.6554273 C0.0923006031,13.3745958 0.310129995,13.0457275 0.646104151,12.9533487 C1.2774402,12.7796767 2.30751482,12.9219399 3.06437966,12.9219399 L7.99876933,12.9219399 C8.727944,12.9219399 9.78940082,12.7630485 10.450273,12.9551963 C11.3437428,13.2138568 11.0963772,14.830485 11.0963772,15.9778291 L11.0963772,21.0401848 C11.0963772,22.27806 11.3658949,23.8891455 10.28967,24 Z M2.06384124,15.0872979 L2.06384124,21.9307159 L8.99930775,21.9307159 L8.99930775,14.991224 L2.09522345,14.991224 C2.0583032,14.9967667 2.06199524,15.0411085 2.06384124,15.0872979 Z M23.998154,13.7829099 L23.998154,16.456351 C23.9243135,17.3579677 23.9870779,18.3963048 23.9667718,19.3515011 L17.0940697,19.3515011 L17.0940697,17.7921478 C16.4479655,17.7182448 15.6634105,17.7829099 14.965618,17.760739 C14.8899316,19.7764434 14.954542,21.9307159 14.9323898,24 L13.6789478,24 C12.5971848,23.7856813 12.9036228,22.1838337 12.9036228,20.9127021 L12.9036228,15.9796767 C12.9036228,15.2369515 12.7522498,14.1247113 12.936851,13.5279446 C13.1565264,12.8147806 14.1109145,12.9219399 15.0653027,12.9219399 L19.7430967,12.9219399 L19.7430967,17.156582 L21.9029305,17.156582 C21.9250827,15.7561201 21.8604723,14.2706698 21.9361588,12.9219399 C22.9754634,12.8628176 23.9390816,12.8775981 24,13.7829099 L23.998154,13.7829099 Z M5.38666256,17.0605081 C5.88498621,17.0001479 6.37805232,17.2080148 6.68303826,17.6070342 C6.9880242,18.0060537 7.05945921,18.5367354 6.87085609,19.0023095 C6.31705254,20.4933025 3.66433351,19.9334873 4.1609107,18.0471132 C4.29751557,17.526097 4.69625413,17.1362586 5.38666256,17.0605081 Z M19.4163526,24 L17.0977617,24 C17.1180678,23.1833718 17.0534574,22.2817552 17.1291439,21.5168591 L19.4181986,21.5168591 L19.4181986,24 L19.4163526,24 Z M23.998154,21.5168591 L23.998154,23.1408776 C23.9329048,23.5558424 23.6286859,23.8929413 23.222829,24 L21.5798785,24 C21.6001846,23.1833718 21.5355742,22.2817552 21.6112607,21.5168591 L23.998154,21.5168591 Z" id="形状"></path>
                    </g>
                </g>
            </g>
        </g>
    </g>
</svg>