
<svg width="14px" height="14px" viewBox="0 0 14 14" version="1.1" xmlns="http://www.w3.org/2000/svg" xmlns:xlink="http://www.w3.org/1999/xlink">
    <g id="Page-1" stroke="none" stroke-width="1" fill="none" fill-rule="evenodd">
        <g id="iPhone-8-Copy-4" transform="translate(-333.000000, -457.000000)" fill="#FFFFFF" fill-rule="nonzero">
            <g id="问号-(1)" transform="translate(333.000000, 457.000000)">
                <path d="M7,0 C3.13400675,-2.36723813e-16 4.73447626e-16,3.13400675 0,7 C4.73447626e-16,10.8659932 3.13400675,14 7,14 C10.8659932,14 14,10.8659932 14,7 C14,3.13400675 10.8659932,2.36723813e-16 7,0 Z M11.2532533,11.2532533 C10.7055163,11.802906 10.0561172,12.2407968 9.34121622,12.5425425 C8.60022523,12.8578579 7.81281281,13.0155155 7,13.0155155 C5.40418154,13.0194687 3.87293052,12.3856519 2.74674675,11.255005 C2.197,10.7070096 1.75910401,10.0573052 1.45745746,9.34209209 C1.14326083,8.60131319 0.982082152,7.80465556 0.983608609,7 C0.983608609,6.18806306 1.14214214,5.40065065 1.45658158,4.65965966 C2.75064106,1.59966383 6.27853663,0.165929583 9.34034034,1.45570571 C10.0549438,1.75800063 10.7042429,2.19582395 11.2523774,2.74499499 C11.8028694,3.29322928 12.241111,3.94360005 12.5425425,4.65965966 C12.8578579,5.40152653 13.0155155,6.18893894 13.0155155,7.00087588 C13.0196636,8.59673283 12.385817,10.1280559 11.255005,11.2541291 L11.2532533,11.2532533 Z M6.92905405,9.07757758 C6.78976878,9.07752612 6.65700149,9.01857251 6.56355751,8.91528354 C6.47011352,8.81199457 6.42470925,8.67400496 6.43856356,8.53541041 C6.50513013,7.85222723 7.00525526,7.30217718 7.55705706,6.75125125 C8.43906406,5.86836837 8.4522022,5.58808809 8.46796797,5.29291792 C8.48452994,4.94112906 8.35376505,4.5983473 8.10710711,4.34697197 C7.81700578,4.04492556 7.41616897,3.87440382 6.99737237,3.87487487 L6.99474474,3.87487487 C6.18466711,3.87776503 5.52909321,4.53451308 5.52765265,5.34459459 C5.52765265,5.61645248 5.30726829,5.83683684 5.03541041,5.83683684 C4.76355253,5.83683684 4.54316817,5.61645248 4.54316817,5.34459459 C4.54110755,4.69409136 4.79905054,4.06973058 5.25963463,3.61036036 C5.71794439,3.14884029 6.3416957,2.88962715 6.99211712,2.89039039 C7.68265056,2.88933942 8.34351079,3.17102793 8.82094595,3.66991992 C9.25975976,4.13150651 9.48485986,4.72622623 9.45157658,5.34371872 C9.41741742,5.97785285 9.22384885,6.47622623 8.2525025,7.4466967 C7.76026026,7.93893894 7.4502002,8.30855856 7.41866867,8.63263263 C7.39389921,8.88451692 7.18215325,9.07656558 6.92905405,9.0767017 L6.92905405,9.07757758 Z M6.31944444,10.5166416 C6.31944444,10.8436451 6.5845331,11.1087337 6.91153654,11.1087337 C7.23853997,11.1087337 7.50362863,10.8436451 7.50362863,10.5166416 C7.50362863,10.1896382 7.23853997,9.92454955 6.91153654,9.92454955 C6.5845331,9.92454955 6.31944444,10.1896382 6.31944444,10.5166416 Z" id="形状"></path>
            </g>
        </g>
    </g>
</svg>