<?xml version="1.0" encoding="utf-8"?>
<!-- Generator: Adobe Illustrator 17.0.0, SVG Export Plug-In . SVG Version: 6.00 Build 0)  -->
<!DOCTYPE svg PUBLIC "-//W3C//DTD SVG 1.1//EN" "http://www.w3.org/Graphics/SVG/1.1/DTD/svg11.dtd">
<svg version="1.1" id="图层_1" xmlns="http://www.w3.org/2000/svg" xmlns:xlink="http://www.w3.org/1999/xlink" x="0px" y="0px"
	 width="14px" height="14px" viewBox="0 0 14 14" enable-background="new 0 0 14 14" xml:space="preserve">
<g id="Page-1">
	<g id="iPhone-8-Copy-4" transform="translate(-333.000000, -457.000000)">
		<g id="问号-_x28_1_x29_" transform="translate(333.000000, 457.000000)">
			<path id="形状" fill="#FFAA36" d="M7,0C3.134,0,0,3.134,0,7s3.134,7,7,7s7-3.134,7-7S10.866,0,7,0z M11.253,11.253
				c-0.548,0.55-1.197,0.988-1.912,1.289C8.6,12.858,7.813,13.016,7,13.016c-1.596,0.004-3.127-0.63-4.253-1.761
				c-0.55-0.548-0.988-1.198-1.289-1.913C1.143,8.601,0.982,7.805,0.984,7c0-0.812,0.159-1.599,0.473-2.34
				C2.751,1.6,6.279,0.166,9.34,1.456c0.715,0.302,1.364,0.74,1.912,1.289c0.55,0.548,0.989,1.199,1.29,1.915
				c0.315,0.742,0.473,1.529,0.473,2.341c0.004,1.596-0.63,3.127-1.761,4.253L11.253,11.253z M6.929,9.078
				c-0.139,0-0.272-0.059-0.365-0.162C6.47,8.812,6.425,8.674,6.439,8.535c0.067-0.683,0.567-1.233,1.118-1.784
				c0.882-0.883,0.895-1.163,0.911-1.458c0.017-0.352-0.114-0.695-0.361-0.946c-0.29-0.302-0.691-0.473-1.11-0.472H6.995
				c-0.81,0.003-1.466,0.66-1.467,1.47c0,0.272-0.22,0.492-0.492,0.492s-0.492-0.22-0.492-0.492C4.541,4.694,4.799,4.07,5.26,3.61
				C5.718,3.149,6.342,2.89,6.992,2.89c0.691-0.001,1.351,0.281,1.829,0.78C9.26,4.132,9.485,4.726,9.452,5.344
				C9.417,5.978,9.224,6.476,8.253,7.447C7.76,7.939,7.45,8.309,7.419,8.633C7.394,8.885,7.182,9.077,6.929,9.078L6.929,9.078z
				 M6.319,10.517c0,0.327,0.265,0.592,0.592,0.592s0.592-0.265,0.592-0.592S7.239,9.925,6.912,9.925S6.319,10.19,6.319,10.517z"/>
		</g>
	</g>
</g>
</svg>
