<?xml version="1.0" standalone="no"?><!DOCTYPE svg PUBLIC "-//W3C//DTD SVG 1.1//EN" "http://www.w3.org/Graphics/SVG/1.1/DTD/svg11.dtd"><svg t="1566470620394" class="icon" viewBox="0 0 1024 1024" version="1.1" xmlns="http://www.w3.org/2000/svg" p-id="2072" xmlns:xlink="http://www.w3.org/1999/xlink" width="200" height="200"><defs><style type="text/css"></style></defs><path d="M97 512.1V564h129.7c14.3 0 25.9-11.6 25.9-25.9 0-14.3-11.6-25.9-25.9-25.9H97z m25.9-103.7h207.5c14.3 0 25.9 11.6 25.9 25.9 0 14.3-11.6 25.9-25.9 25.9H122.9c-14.3 0-25.9-11.6-25.9-25.9 0-14.3 11.6-25.9 25.9-25.9zM97 304.6v51.9h337.2c14.3 0 25.9-11.6 25.9-25.9 0-14.3-11.6-25.9-25.9-25.9H97z m259.4 466.9H252.6c0 28.6 23.2 51.9 51.9 51.9s51.9-23.2 51.9-51.9z m415 0H667.6c0 28.6 23.2 51.9 51.9 51.9s51.9-23.2 51.9-51.9zM875.1 564h-78c-14.5 0-25.7-11.6-25.7-25.9 0-13.9 11.5-25.9 25.7-25.9h78v-26.1c0-0.5-2.7-7-2.9-7.2l-67.6-67.6c-0.1-0.1-6.8-2.9-6.9-2.9h-78.3v311.2H875V564zM719.5 356.5h78.3c13.6 0 33.6 8.1 43.5 18.1l67.6 67.6c9.9 9.9 18.1 29.6 18.1 43.9v259.5c0 13.9-11.6 25.9-25.9 25.9h-77.8c0 57.3-46.5 103.8-103.8 103.8s-103.8-46.5-103.8-103.8H408.2c0 57.3-46.5 103.8-103.8 103.8s-103.8-46.5-103.8-103.8H149c-28.4 0-52-23.3-52-52V201c0-28.4 23.3-52 52-52h518.5c28.4 0 52 23.3 52 52v155.5zM148.9 564v155.6h518.8V200.9H148.9v103.8H97V564h51.9z" fill="#1296db" p-id="2073"></path></svg>