<?xml version="1.0" encoding="UTF-8"?>
<svg width="100px" height="100px" viewBox="0 0 100 100" version="1.1" xmlns="http://www.w3.org/2000/svg" xmlns:xlink="http://www.w3.org/1999/xlink">
    <!-- Generator: Sketch 52.5 (67469) - http://www.bohemiancoding.com/sketch -->
    <title>kd2</title>
    <desc>Created with Sketch.</desc>
    <g id="kd2" stroke="none" stroke-width="1" fill="none" fill-rule="evenodd">
        <g>
            <path d="M14.1931627,11.0139794 C33.713016,-2.88987424 63.6309778,-4.43852868 85.7886491,11.0309976 L83.610322,12.7328156 C81.4546857,14.4119428 79.2990495,16.1137608 77.1434133,17.8382699 C76.8333277,18.1156189 76.3643352,18.1156189 76.0542497,17.8382699 C61.9967077,9.88286591 45.0765058,8.77991942 30.1051618,14.84307 C27.9098165,15.7280154 25.8335984,16.8852517 23.6893076,17.9063425 C23.46577,17.998071 23.2150997,17.998071 22.9915621,17.9063425 C20.0474169,15.6429245 17.1202898,13.3454701 14.2101809,11.0990702 C14.227199,11.1160884 14.2101809,11.0650339 14.1931627,11.0139794 Z M11.0277811,85.7578292 C-3.67475295,64.1508919 -3.67475295,35.7522618 11.0277811,14.1453246 L13.6145446,17.4468517 C15.0270536,19.2507788 16.4225444,21.054706 17.8350534,22.841615 C18.105654,23.0964271 18.1422498,23.5136193 17.9201443,23.8116513 C9.89932327,37.8926934 8.79494489,54.8787859 14.9249445,69.8798665 C15.8098899,72.0241573 16.9330899,74.066339 17.9201443,76.1595752 C18.0206423,76.387232 18.0206423,76.6466821 17.9201443,76.8743388 C15.6397081,79.8355022 13.37629,82.7626294 11.0277811,85.7578292 Z M85.7716309,88.940229 C76.7967492,95.0463233 66.39814,98.7333161 55.5813782,99.6446647 C40.9152163,100.967134 26.2433567,97.1728947 14.0570173,88.9061926 L23.1957804,81.7925931 C25.4932348,82.8647384 27.6885801,84.0219747 30.0030527,84.9749929 C37.4661583,88.0461903 45.5412682,89.3396062 53.5902511,88.753029 C61.554098,88.2326209 69.2947061,85.9046185 76.2244315,81.9457567 C76.4435038,81.8336484 76.7031046,81.8336484 76.9221769,81.9457567 C79.8322858,84.1751383 82.7083583,86.4385564 85.6014491,88.753029 C85.6643988,88.8094752 85.7214217,88.8722004 85.7716309,88.940229 Z M88.9370125,14.09427 C103.600549,35.7504438 103.600549,64.15271 88.9370125,85.8088837 L84.5633401,80.2269204 L82.1297402,77.1466298 C81.823629,76.8642577 81.7727778,76.3993323 82.010613,76.0574661 C87.005381,67.2654788 89.3682505,57.2232835 88.8178853,47.1265589 C88.4181521,39.0158412 86.1215939,31.1119505 82.112722,24.0499059 C81.7764918,23.6173048 81.820528,23.0007987 82.2148311,22.6203786 C84.3080673,19.9825606 86.3672672,17.3277244 88.4264671,14.6728882 L88.9370125,14.09427 Z M45.8129425,39.5534685 C43.6953855,37.6112746 41.0579029,36.3280151 38.222834,35.8605232 C35.9638533,35.3407154 33.6039102,35.4705122 31.4155617,36.2349232 C29.6729843,36.787935 28.5528401,38.4823304 28.7266891,40.3022684 C28.7423937,41.4151638 29.3353381,42.4399264 30.2923618,43.0081591 C31.9941798,44.0632863 33.695998,45.0503408 35.3978159,45.9523044 C38.5168415,47.4356828 41.3872424,49.3932963 43.9069063,51.7555041 C48.715494,56.737509 48.9005007,64.5743946 44.3323608,69.7777575 C42.2157164,72.1097674 39.3001923,73.5614554 36.163634,73.8451026 C30.8235289,74.5202824 25.4204419,73.2254777 20.9663986,70.203212 C20.4221826,69.9092029 20.102079,69.3223464 20.149526,68.7056121 L20.149526,60.8261943 L20.149526,60.0263399 C20.9663986,60.792158 21.6981804,61.5920125 22.5150531,62.2727397 C25.6207758,64.9873172 29.6618551,66.3852132 33.7810888,66.1699031 C35.7579928,66.2689242 37.5941811,65.1483094 38.410034,63.3448852 C39.6405787,61.0075735 38.9914625,58.1226124 36.8783977,56.5376129 C34.8546873,55.0140661 32.6477699,53.7505201 30.3093799,52.7765949 C27.7676457,51.6974806 25.4304491,50.1892404 23.3999985,48.3178315 C19.1600722,43.9440162 19.0927217,37.014395 23.2468349,32.5589962 C25.6635704,30.0415368 28.9230613,28.5026692 32.4026161,28.2363782 C36.4798724,27.6839435 40.6291349,28.365608 44.3153426,30.1934691 C45.4183409,30.5797097 46.0951295,31.6910678 45.9320698,32.8483053 C45.7618879,34.8394324 45.9320698,36.8475778 45.9320698,38.855723 L45.8129425,39.5534685 Z M60.8570143,74.1684481 L52.3479239,74.1684481 L52.3479239,73.3685936 L52.3479239,31.5549235 C52.2854708,31.0974602 52.5920973,30.6711745 53.0456694,30.5848872 C58.1786788,28.666428 63.6328786,27.7535429 69.110832,27.8960146 C72.5099562,27.9873023 75.8440881,28.8484742 78.8622496,30.4147054 C79.4569934,30.6641746 79.8218282,31.2699381 79.7642131,31.9123053 L79.7642131,39.2471412 L79.5089404,39.2471412 C75.5149698,36.5487842 70.6765774,35.393618 65.8943958,35.9966687 C64.3936065,36.1979842 62.9050842,36.4820534 61.4356325,36.8475778 C60.8399962,36.966705 60.7889417,37.341105 60.7889416,37.8516504 L60.7889416,73.02823 L60.8570143,74.1684481 Z" id="形状" fill="#292A2C" fill-rule="nonzero"></path>
            <path d="M70.4722864,56.1461946 C69.0379671,56.1515924 67.6675331,55.5533955 66.6962707,54.497957 C65.7250082,53.4425185 65.2425135,52.0271996 65.3668322,50.5982678 C65.5417701,47.885742 67.7551202,45.753548 70.4722864,45.6800136 C71.8636495,45.666297 73.2022625,46.2117848 74.1877511,47.1940738 C75.1732396,48.1763627 75.7230778,49.5131947 75.713886,50.904595 C75.7045451,53.7955726 73.363264,56.1368537 70.4722864,56.1461946 Z" id="路径" fill="#CB2B2F"></path>
        </g>
    </g>
</svg>