<?xml version="1.0" encoding="UTF-8"?>
<svg width="100px" height="100px" viewBox="0 0 100 100" version="1.1" xmlns="http://www.w3.org/2000/svg" xmlns:xlink="http://www.w3.org/1999/xlink">
    <!-- Generator: Sketch 52.5 (67469) - http://www.bohemiancoding.com/sketch -->
    <title>kd4</title>
    <desc>Created with Sketch.</desc>
    <g id="kd4" stroke="none" stroke-width="1" fill="none" fill-rule="evenodd">
        <g transform="translate(0.000000, 22.000000)">
            <polygon id="路径" fill="#EA6000" points="26.655481 43.590604 31.7449664 18.7583893 24.9888143 18.7695749 26.8120805 9.10514541 58.9932886 9.10514541 57.147651 18.803132 43.2102908 18.803132 38.064877 43.590604"></polygon>
            <path d="M14.787472,43.5234899 L3.99328859,43.5234899 L6.31991051,31.4317673 L0.033557047,9.10514541 L11.3870246,9.10514541 C11.3870246,9.10514541 13.6577181,18.590604 13.8143177,19.4183445 C14.261745,18.6912752 20.2908277,9.10514541 20.2908277,9.10514541 L32.3266219,9.10514541 L17.0469799,31.7449664 L14.787472,43.5234899 Z M48.0089485,26.0514541 C48.0089485,11.7114094 59.6420582,0.0782997763 73.9932886,0.0782997763 C88.344519,0.0782997763 99.966443,11.7114094 99.966443,26.0514541 C99.966443,40.4026846 88.3333333,52.0357942 73.9932886,52.0357942 C59.6420582,52.0357942 48.0089485,40.4026846 48.0089485,26.0514541 Z" id="形状" fill="#47086C" fill-rule="nonzero"></path>
            <path d="M72.9753915,11.7449664 C72.9753915,10.0111857 75.246085,7.7852349 77.0134228,7.7852349 L77.3154362,7.7852349 C78.5346756,7.7852349 79.6085011,8.80313199 79.6085011,9.93288591 L79.6085011,10.1677852 C79.6085011,12.2035794 77.4049217,14.541387 75.458613,14.541387 L75.0559284,14.541387 C73.8814318,14.541387 72.9753915,13.557047 72.9753915,12.3042506 L72.9753915,11.7449664 Z M74.6868009,34.1946309 C73.7807606,35.3467562 72.7181208,36.3534676 71.5883669,37.2371365 C70.4362416,38.1096197 69.1834452,38.8255034 67.8635347,39.2505593 C66.0626398,39.8210291 64.2841163,39.9440716 62.4272931,39.9440716 C60.3579418,39.9440716 58.1543624,39.1498881 56.9127517,38.2774049 C55.8724832,37.5503356 53.9821029,35.5257271 53.9485459,33.9485459 C54.9776286,34.0268456 54.1387025,34.787472 55.5816555,34.787472 C56.1521253,35.1901566 56.7785235,35.9731544 57.6621924,35.9731544 C57.6286353,35.49217 57.4608501,35.5033557 57.4608501,35.2237136 C57.4608501,34.9776286 57.4944072,35.1006711 57.5615213,34.787472 L57.6957494,34.7986577 C58.1096197,35.033557 60.0111857,36.1521253 62.3154362,36.1856823 C64.01566,36.2304251 64.2841163,36.2080537 65.2572707,36.0402685 C67.0469799,35.7494407 68.8590604,34.9217002 70.2013423,33.5458613 C71.4876957,32.2147651 72.5391499,30.4474273 73.0089485,28.557047 C73.3333333,27.2371365 73.344519,25.5033557 72.9530201,24.1946309 C72.2930649,22.0581655 70.458613,21.5100671 68.6353468,21.5100671 C62.3154362,21.5100671 62.0134228,26.5659955 60.7494407,26.935123 C60.9955257,25.6263982 62.1588367,24.787472 62.1588367,23.803132 L60.704698,25.4026846 L60.5816555,25.3243848 L61.4876957,23.7360179 L61.3982103,23.6577181 C61.0178971,23.7695749 60.3579418,24.8434004 60.2684564,25.2684564 L60.0559284,25.2684564 C60.1006711,23.5123043 62.0246085,21.0850112 62.9753915,20.0671141 C64.1051454,18.8478747 65.98434,17.9753915 67.5727069,17.6733781 C68.6353468,17.4720358 69.7315436,17.4720358 70.7941834,17.6174497 C72.7181208,17.8970917 74.3064877,18.9597315 75.4362416,20.2348993 C76.655481,21.6107383 77.3154362,23.6912752 77.2371365,25.704698 C77.2035794,27.2930649 77.2259508,28.4228188 76.6666667,30.4362416 C76.2751678,31.8344519 75.5592841,33.098434 74.6868009,34.1946309 Z M86.5100671,39.9440716 C85.3355705,39.9440716 85.5592841,38.7472036 85.4809843,37.5391499 C85.3914989,36.4988814 85.1230425,35.49217 84.6979866,34.7651007 C83.8814318,33.3892617 82.3154362,32.2371365 80.2348993,32.2371365 L77.2035794,32.2371365 L77.2035794,32.0246085 L78.0313199,31.8791946 L78.0313199,31.6666667 L77.606264,31.6666667 C77.7964206,30.917226 79.9105145,31.3758389 80.0111857,30.3467562 L78.557047,30.5033557 L78.5123043,30.3803132 L80.6487696,29.4854586 L79.1834452,29.4854586 C79.6532438,28.8255034 81.5995526,28.7136465 82.7516779,28.7136465 L83.4675615,28.7136465 C87.4832215,29.1722595 89.4295302,33.0201342 89.7762864,35.5592841 C89.8545861,36.0738255 89.8881432,36.901566 89.8881432,36.901566 C89.8881432,38.590604 88.2438479,39.9440716 86.5100671,39.9440716 Z M85.7606264,24.0939597 C84.1051454,25.917226 80.2572707,28.6241611 77.4384787,28.8926174 C77.4944072,28.344519 79.295302,27.6845638 79.6979866,27.2930649 L79.2058166,27.2371365 L79.6979866,26.3087248 L78.2774049,26.7002237 L78.2326622,26.5995526 L79.6644295,25.704698 L79.6085011,25.5816555 L78.8702461,25.5816555 C79.2281879,25.0223714 79.7427293,25.2684564 79.787472,24.4966443 L78.3221477,24.7986577 L79.8881432,23.7583893 L78.7695749,24.0044743 L78.7695749,23.7807606 C80.3355705,23.344519 82.2706935,21.4317673 83.2997763,20.3020134 C84.3176734,19.1834452 85.5369128,16.5883669 85.5369128,14.4407159 L89.9328859,14.4407159 C89.6420582,18.5346756 87.8635347,21.7785235 85.7606264,24.0939597 Z" id="形状" fill="#FFFFFF" fill-rule="nonzero"></path>
        </g>
    </g>
</svg>