<?xml version="1.0" encoding="utf-8"?>
<!-- Generator: Adobe Illustrator 17.0.0, SVG Export Plug-In . SVG Version: 6.00 Build 0)  -->
<!DOCTYPE svg PUBLIC "-//W3C//DTD SVG 1.1//EN" "http://www.w3.org/Graphics/SVG/1.1/DTD/svg11.dtd">
<svg version="1.1" id="图层_1" xmlns="http://www.w3.org/2000/svg" xmlns:xlink="http://www.w3.org/1999/xlink" x="0px" y="0px"
	 width="156px" height="100px" viewBox="0 0 156 100" enable-background="new 0 0 156 100" xml:space="preserve">
<g id="Page-1">
	<g id="个人后台" transform="translate(-108.000000, -478.000000)">
		<g id="无数据" transform="translate(86.000000, 478.000000)">
			<g id="形状" transform="translate(22.000000, 0.000000)">
				<path fill="#D0D0D0" d="M15.601,68.334H17.7c0.563,0.007,1.017,0.46,1.02,1.019c0.003,0.27-0.104,0.53-0.296,0.721
					c-0.192,0.192-0.453,0.299-0.725,0.298h-2.099v2.064c-0.016,0.558-0.478,1-1.04,0.997c-0.274,0.005-0.538-0.098-0.734-0.287
					c-0.193-0.186-0.303-0.442-0.305-0.71v-2.064h-2.099c-0.563-0.007-1.017-0.46-1.02-1.019c0-0.561,0.448-1.019,1.02-1.019h2.099
					v-2.061c0.014-0.559,0.477-1.004,1.04-1c0.575,0,1.04,0.442,1.04,1v2.064V68.334z M152.88,60.173v-2.058
					c-0.001-0.269-0.111-0.526-0.305-0.713c-0.197-0.189-0.461-0.292-0.734-0.287c-0.563-0.004-1.026,0.441-1.04,1v2.061h-2.099
					c-0.273,0-0.535,0.108-0.728,0.3c-0.283,0.295-0.364,0.728-0.207,1.105c0.158,0.376,0.524,0.625,0.935,0.634h2.099v2.061
					c0,0.561,0.465,1,1.04,1c0.563,0.004,1.026-0.441,1.04-1v-2.061h2.099c0.272,0.001,0.533-0.106,0.725-0.298
					s0.298-0.451,0.296-0.721c-0.003-0.559-0.457-1.012-1.02-1.019h-2.099V60.173z M77.318,93.836H24.954
					c-0.55,0-1.078-0.215-1.469-0.6c-0.388-0.381-0.606-0.9-0.604-1.442c0-1.126,0.942-2.039,2.073-2.039h9.431
					c-0.727-1.235-1.108-2.64-1.105-4.071V26.509c0-2.164,0.877-4.242,2.441-5.768c1.57-1.533,3.686-2.39,5.889-2.384h6.23V16.31
					c0-2.164,0.877-4.239,2.441-5.768c1.57-1.533,3.686-2.39,5.889-2.384h49.9c2.21-0.003,4.326,0.852,5.889,2.381
					c1.56,1.529,2.441,3.606,2.441,5.771v59.173c0,1.484-0.403,2.871-1.108,4.068h11.505c1.15,0,2.083,0.903,2.083,2.039
					c0,1.129-0.926,2.042-2.08,2.042H99.84v2.048c0,1.484-0.403,2.871-1.108,4.071h1.115c1.144,0,2.073,0.903,2.073,2.039
					c0,1.129-0.942,2.042-2.073,2.042H88.904c0.974,1.603,0.709,3.66-0.64,4.968c-1.628,1.603-4.254,1.603-5.882,0l-5.063-4.968
					V93.836z M84.923,89.756h6.614c2.288,0,4.144-1.816,4.144-4.09V26.413c0-2.203-1.797-3.974-4.014-3.974H41.454
					c-2.216,0-4.014,1.777-4.014,3.974v59.25c0,2.258,1.872,4.09,4.14,4.09h31.574l-1.069-1.052
					c-1.052-1.023-1.465-2.531-1.079-3.942l-1.963-1.929c-6.129,4.466-14.678,3.552-19.708-2.106
					c-4.993-5.635-4.691-14.156,0.689-19.428c5.427-5.311,14.045-5.621,19.844-0.713c5.775,4.873,6.702,13.377,2.112,19.364
					l1.966,1.929c1.436-0.381,2.974,0.023,4.02,1.058l6.955,6.819V89.756z M99.84,79.556h6.259c2.276,0.002,4.126-1.821,4.14-4.081
					V16.323c0-2.258-1.852-4.081-4.14-4.081H56.141c-2.276-0.002-4.126,1.821-4.14,4.081v2.039h39.51
					c2.21-0.003,4.326,0.852,5.889,2.381c1.56,1.529,2.441,3.606,2.441,5.771V79.556z M26.521,4.587h3.1
					c0.414-0.005,0.814,0.153,1.11,0.441s0.465,0.68,0.47,1.091c-0.005,0.411-0.174,0.802-0.471,1.089s-0.695,0.445-1.109,0.44h-3.1
					v3.042c0,0.553-0.297,1.065-0.78,1.341c-0.483,0.277-1.077,0.277-1.56,0s-0.78-0.788-0.78-1.341V7.645h-3.1
					c-0.416,0.004-0.816-0.154-1.115-0.442c-0.296-0.286-0.463-0.677-0.465-1.087c0.005-0.411,0.174-0.802,0.471-1.089
					s0.695-0.445,1.109-0.44h3.1V1.549c0-0.553,0.297-1.065,0.78-1.341s1.077-0.277,1.56,0c0.483,0.277,0.78,0.788,0.78,1.341V4.587
					z M2.081,91.795c0-1.126,0.942-2.039,2.073-2.039h12.493c1.144,0,2.073,0.903,2.073,2.039c0,1.129-0.942,2.042-2.073,2.042
					H4.154c-0.55,0-1.078-0.215-1.469-0.6C2.297,92.856,2.079,92.336,2.081,91.795z M67.675,78.611
					c2.623-2.562,3.652-6.328,2.691-9.855c-0.978-3.535-3.781-6.285-7.355-7.213c-3.584-0.944-7.403,0.061-10.046,2.642
					c-1.948,1.902-3.046,4.5-3.046,7.213s1.097,5.311,3.046,7.213C57.048,82.594,63.593,82.594,67.675,78.611z M45.761,30.596
					c0-1.126,0.929-2.039,2.08-2.039h22.88c1.147,0,2.08,0.913,2.08,2.039c0,1.129-0.933,2.042-2.08,2.042h-22.88
					c-0.551,0.002-1.08-0.213-1.472-0.597C45.979,31.66,45.759,31.139,45.761,30.596z M45.761,40.796
					c0-1.126,0.926-2.039,2.067-2.039h33.306c0.754-0.03,1.464,0.352,1.85,0.996c0.386,0.644,0.386,1.445,0,2.089
					c-0.386,0.644-1.096,1.026-1.85,0.996H47.828c-0.549,0-1.076-0.216-1.466-0.6C45.975,41.857,45.758,41.337,45.761,40.796z
					 M45.761,50.996c0-1.126,0.926-2.039,2.077-2.039h14.563c1.147,0,2.077,0.903,2.077,2.039c0,1.129-0.926,2.039-2.077,2.039
					h-14.56c-0.551,0.002-1.08-0.212-1.472-0.597c-0.388-0.381-0.606-0.9-0.604-1.442H45.761z M6.241,38.757
					c-2.229,0-4.29-1.168-5.405-3.061c-1.115-1.89-1.115-4.23,0-6.119c1.127-1.9,3.184-3.064,5.405-3.058
					c3.445,0,6.24,2.739,6.24,6.119S9.686,38.757,6.241,38.757z M6.241,35.696c1.115,0,2.145-0.581,2.704-1.529
					c0.558-0.945,0.558-2.116,0-3.061c-0.564-0.95-1.593-1.532-2.704-1.529c-1.722,0-3.12,1.371-3.12,3.061
					C3.121,34.328,4.518,35.696,6.241,35.696z M135.2,26.519c-3.445,0-6.24-2.742-6.24-6.119c0-3.381,2.795-6.119,6.24-6.119
					c3.445,0,6.24,2.739,6.24,6.119C141.44,23.777,138.645,26.519,135.2,26.519z M135.2,23.458c1.115,0,2.145-0.581,2.704-1.529
					c0.558-0.945,0.558-2.116,0-3.061c-0.564-0.95-1.593-1.532-2.704-1.529c-1.722,0-3.12,1.371-3.12,3.061
					C132.08,22.087,133.478,23.458,135.2,23.458z"/>
			</g>
		</g>
	</g>
</g>
</svg>
