<?xml version="1.0" encoding="utf-8"?>
<!-- Generator: Adobe Illustrator 17.0.0, SVG Export Plug-In . SVG Version: 6.00 Build 0)  -->
<!DOCTYPE svg PUBLIC "-//W3C//DTD SVG 1.1//EN" "http://www.w3.org/Graphics/SVG/1.1/DTD/svg11.dtd">
<svg version="1.1" id="图层_1" xmlns="http://www.w3.org/2000/svg" xmlns:xlink="http://www.w3.org/1999/xlink" x="0px" y="0px"
	 width="200px" height="200px" viewBox="0 0 200 200" enable-background="new 0 0 200 200" xml:space="preserve">
<path fill="#1296DB" d="M79.317,187.517c5.235-0.269,9.261-4.731,8.992-9.966c-0.25-4.859-4.133-8.743-8.992-8.992
	c-5.225,0-9.475,4.25-9.475,9.475C69.842,183.267,74.092,187.517,79.317,187.517L79.317,187.517z M79.317,156.075
	c12.132,0,21.967,9.835,21.967,21.967s-9.835,21.967-21.967,21.967c-12.132-0.002-21.965-9.839-21.963-21.971
	C57.356,165.909,67.188,156.077,79.317,156.075L79.317,156.075z M161.567,187.517c5.235-0.269,9.261-4.731,8.992-9.966
	c-0.25-4.859-4.133-8.743-8.992-8.992c-5.233,0-9.483,4.25-9.483,9.475c0,5.233,4.25,9.483,9.475,9.483L161.567,187.517z
	 M161.567,156.075c12.13-0.229,22.149,9.418,22.378,21.548s-9.418,22.149-21.548,22.378c-0.285,0.005-0.57,0.005-0.855,0
	c-12.127-0.336-21.686-10.44-21.349-22.567c0.323-11.658,9.7-21.031,21.358-21.349L161.567,156.075z M84.133,99.05L171,88.575
	c0,0,4.392-21.358,7.6-37.792c0.067-0.367-112.275-0.083-138.642-0.017l26.358,79.058h111.708c3.417,0,6.175,2.908,6.175,6.483
	c0,3.592-2.767,6.5-6.167,6.5H61.925c-2.679-0.039-5.031-1.793-5.833-4.35L14.275,12.983h-8.1C2.767,12.983,0,10.075,0,6.483
	C0,2.908,2.767,0,6.175,0h12.492c2.625,0,4.967,1.75,5.833,4.35L35.65,37.8h150.292c3.908,0,6.833,3.767,6.05,7.792l-9.867,50.533
	c-0.479,2.701-2.648,4.783-5.367,5.15l-91.25,10.667c-3.392,0.417-6.442-2.158-6.825-5.725c-0.367-3.558,2.067-6.775,5.458-7.167
	H84.133z"/>
</svg>
