<?xml version="1.0" encoding="UTF-8"?>
<svg width="100px" height="100px" viewBox="0 0 100 100" version="1.1" xmlns="http://www.w3.org/2000/svg" xmlns:xlink="http://www.w3.org/1999/xlink">
    <!-- Generator: Sketch 52.5 (67469) - http://www.bohemiancoding.com/sketch -->
    <title>kd1</title>
    <desc>Created with Sketch.</desc>
    <g id="kd1" stroke="none" stroke-width="1" fill="none" fill-rule="evenodd">
        <g transform="translate(0.000000, 4.000000)" fill="#44A365" fill-rule="nonzero" id="形状">
            <path d="M58.3691657,0 L54.9969101,13.6805335 L38.5769394,13.6805335 L38.5769394,22.3651326 L58.5606766,22.3651326 L62.7239551,9.05929419 L97.9452919,9.05929419 L99.918686,0 L58.3691657,0 Z M33.2396162,13.6805335 L26.7115953,41.6577655 L16.4199708,41.6577655 L16.4199708,50.334038 L25.3293869,50.334038 L23.9388519,55.1551147 L16.4199708,55.1551147 L16.4199708,64.2144089 L22.356806,64.2144089 L16.4199708,91.5921288 L38.5769394,91.5921288 L38.5769394,82.5328346 L23.9388519,82.5328346 L25.121223,77.7117581 L38.5769394,77.7117581 L38.5769394,68.460953 L27.3111075,68.460953 L28.3102944,64.6057571 L38.5852659,64.6057571 L38.5852659,55.1551147 L29.8756871,55.1551147 L31.0663848,50.3257115 L38.5769394,50.3257115 L38.5769394,41.666092 L32.8316149,41.666092 L34.0306391,36.6451781 L38.5769394,36.6451781 L38.5769394,27.5692308 L35.8041958,27.5692308 L37.1947309,22.3651326 L38.5769394,22.3651326 L38.5769394,13.6805335 L33.2479428,13.6805335 L33.2396162,13.6805335 Z M66.279395,13.8803708 L62.1161165,27.5692308 L38.5769394,27.5692308 L38.5769394,36.6368515 L66.6790698,36.6368515 L70.434347,22.5649699 L94.972711,22.5649699 L96.9544316,13.8886973 L66.279395,13.8886973 L66.279395,13.8803708 Z M59.9512115,41.6577655 L54.0143763,68.460953 L38.5769394,68.460953 L38.5769394,77.7117581 L57.7696536,77.7117581 L64.306001,50.1342007 L89.2357131,50.1342007 L91.0092698,41.6577655 L59.9512115,41.6577655 Z M38.5769394,41.6577655 L38.5769394,50.334038 L47.0866808,50.334038 L46.0958205,55.1551147 L38.5769394,55.1551147 L38.5769394,64.6057571 L49.4680761,64.6057571 L54.4140511,41.6577655 L38.5769394,41.6577655 Z M4.94597496,41.6577655 L0,64.1977557 L16.4199708,64.1977557 L16.4199708,55.1384615 L7.71871852,55.1384615 L8.90108962,50.317385 L16.4199708,50.317385 L16.4199708,41.6411123 L16.4199708,91.5921288 L16.4199708,41.6327858 L4.95430152,41.6327858 L4.95430152,41.6494389 L4.94597496,41.6577655 Z M67.4700927,55.1467881 L61.1419092,82.5328346 L38.5769394,82.5328346 L38.5769394,91.5921288 L65.2968613,91.5921288 L71.6250447,64.5974305 L86.2631322,64.5974305 L88.0450155,55.1467881 L67.4700927,55.1467881 Z"></path>
        </g>
    </g>
</svg>