<?xml version="1.0" encoding="UTF-8"?>
<svg width="100px" height="100px" viewBox="0 0 100 100" version="1.1" xmlns="http://www.w3.org/2000/svg" xmlns:xlink="http://www.w3.org/1999/xlink">
    <!-- Generator: Sketch 52.5 (67469) - http://www.bohemiancoding.com/sketch -->
    <title>kd7</title>
    <desc>Created with Sketch.</desc>
    <g id="kd7" stroke="none" stroke-width="1" fill="none" fill-rule="evenodd">
        <g>
            <path d="M88.4422195,13.5728837 C84.3179667,9.16473854 78.9583914,5.75933255 72.5758922,3.51970824 C66.3538312,1.2811258 58.8954058,0.152458351 50.414447,0.0821364026 C33.1324345,-0.0611119914 20.6159067,4.04946702 12.1697183,12.6743254 C4.15353565,20.9289516 0.158987794,33.0579272 0.0214692719,49.6468777 C-0.115398073,66.1819149 3.73082248,78.3760033 11.662749,86.7631995 C19.9651681,95.5270088 32.304719,99.842954 49.5868618,99.9862025 C82.76307,100.260849 99.7041514,83.598581 99.9787976,50.4218518 C100.114233,34.0460809 96.3204929,22.0126911 88.4422195,13.5728837 Z" id="路径" fill="#FFCC00"></path>
            <path d="M74.1294866,35.1242208 L82.5618711,35.1242208 L82.5618711,43.5566052 L74.1294866,43.5566052 L74.1294866,35.1242208 Z M17.4382656,35.1242208 L25.8706501,35.1242208 L25.8706501,43.5566052 L17.4382656,43.5566052 L17.4382656,35.1242208 Z M38.1639708,51.582685 L45.0733639,55.7482194 L50.0003288,47.3158349 L55.1312274,55.7482194 L61.7349805,51.2779565 L57.2684942,43.5566052 L64.68108,43.5566052 L64.68108,35.1242208 L54.2163908,35.1242208 L54.2163908,26.1331673 L45.7841366,26.1331673 L45.7841366,35.1242208 L35.3199683,35.1242208 L35.3199683,43.5566052 L42.7882908,43.5566052 C41.2952514,46.0719177 38.1639708,51.5826851 38.1639708,51.582685 Z" id="形状" fill="#000000" fill-rule="nonzero"></path>
            <path d="M49.949671,66.4159307 C35.3198381,66.6193435 27.0907362,51.7859676 27.0907362,51.7859676 L18.8608529,51.7859676 C19.6739831,54.0203828 26.8869328,73.9347807 50.9655628,73.9347808 C74.1294866,73.9347808 81.1400652,51.7859676 81.1400652,51.7859676 L72.6057139,51.7859676 C72.6057139,51.7859676 64.679908,66.2112156 49.949671,66.4159307 Z" id="路径" fill="#000000"></path>
        </g>
    </g>
</svg>