<?xml version="1.0" standalone="no"?><!DOCTYPE svg PUBLIC "-//W3C//DTD SVG 1.1//EN" "http://www.w3.org/Graphics/SVG/1.1/DTD/svg11.dtd"><svg t="1566454469626" class="icon" viewBox="0 0 1682 1024" version="1.1" xmlns="http://www.w3.org/2000/svg" p-id="2802" xmlns:xlink="http://www.w3.org/1999/xlink" width="328.515625" height="200"><defs><style type="text/css"></style></defs><path d="M314.660571 3.145143C266.057143 9.142857 217.490286 48.603429 201.581714 94.098286 190.976 122.404571 1.024 925.586286 0.146286 940.178286c-1.755429 42.057143 22.966857 72.923429 63.634285 80.64 14.994286 3.437714 497.371429 3.437714 513.243429 0 45.933714-8.594286 89.234286-43.776 105.142857-86.674286 6.180571-16.274286 202.276571-834.925714 202.276572-848.64 2.669714-38.619429-21.211429-70.363429-59.172572-81.517714C816.420571 2.267429 334.957714 0.548571 314.660571 3.145143z" fill="#E60012" p-id="2803"></path><path d="M764.306286 3.145143c-48.603429 5.997714-97.170286 45.458286-113.078857 90.953143-9.728 28.306286-200.521143 831.488-200.521143 846.08-1.792 42.057143 22.966857 72.923429 63.597714 80.64 14.994286 3.437714 497.371429 3.437714 513.243429 0 45.970286-8.594286 89.234286-43.776 105.142857-86.674286 6.217143-16.274286 202.313143-834.925714 202.313143-848.64 2.633143-38.619429-21.211429-70.363429-59.209143-81.517714C1266.102857 2.267429 784.64 0.548571 764.342857 3.145143z" fill="#00508E" p-id="2804"></path><path d="M1233.408 3.145143c-48.603429 5.997714-97.170286 45.458286-113.078857 90.953143-9.728 28.306286-200.557714 831.488-200.557714 846.08-1.755429 42.057143 22.966857 72.923429 63.634285 80.64 14.994286 3.437714 373.686857 3.437714 389.558857 0 45.970286-8.594286 89.234286-43.776 105.142858-86.674286 6.217143-16.274286 202.313143-834.925714 202.313142-848.64 2.633143-38.619429-21.211429-70.363429-59.209142-81.517714C1612.434286 1.462857 1209.563429-0.292571 1189.229714 2.267429h44.178286v0.877714z" fill="#00908C" p-id="2805"></path><path d="M299.629714 264.009143c0 0.841143-0.877714 5.997714-2.633143 11.154286-20.333714 66.925714-40.667429 157.001143-38.034285 168.155428 7.094857 33.462857 57.453714 30.902857 75.117714-4.278857 5.302857-9.435429 43.300571-166.473143 43.300571-177.627429 0-0.841143 60.050286 0 60.050286 0.877715 0 0 0 2.56-0.877714 5.12s-10.605714 38.619429-21.211429 81.554285c-23.844571 90.953143-26.477714 100.388571-38.838857 118.381715-40.667429 58.368-176.713143 56.649143-187.282286-2.56-2.669714-12.873143 26.477714-161.316571 39.753143-201.654857 0-2.56 70.656-0.841143 70.656 0.877714z m902.838857 0c40.630857 8.557714 53.028571 40.301714 34.450286 87.515428-18.541714 47.177143-58.294857 67.766857-128.073143 67.766858-21.211429 0-19.456-3.401143-32.694857 60.928-2.633143 12.032-5.302857 23.186286-5.302857 24.868571-0.877714 4.315429-63.634286 4.315429-62.72 0 53.028571-220.525714 57.417143-239.36 57.417143-241.078857l0.877714-2.56h63.634286c50.322286 0.841143 64.475429 0.841143 72.411428 2.56zM657.408 348.891429c8.850286 1.718857 14.994286 8.594286 14.994286 14.628571 0 21.430857-45.019429 36.022857-61.805715 19.712-15.908571-16.310857 17.664-41.179429 46.811429-34.340571z m-156.342857 16.310857c0 1.718857-0.914286 5.156571-0.914286 7.716571l-0.877714 3.437714 10.605714-5.12c28.269714-13.750857 55.661714-11.190857 64.475429 5.997715 5.302857 10.276571 4.425143 16.310857-9.691429 79.798857-2.669714 11.154286-6.217143 26.587429-7.058286 34.304-3.547429 17.188571-0.914286 16.310857-32.694857 16.310857-27.428571 0-27.428571 0-26.514285-2.56 0-1.718857 3.547429-15.469714 7.058285-31.744 14.153143-60.928 15.030857-69.485714 2.669715-69.485714-7.058286 0-16.822857 4.242286-17.664 6.838857a2560.438857 2560.438857 0 0 0-18.578286 87.515428l-1.755429 7.716572-27.392 1.718857c-33.572571 0.877714-30.902857 3.437714-23.844571-25.746286 9.728-37.741714 14.994286-64.365714 18.541714-88.356571 4.425143-25.746286 1.792-23.186286 26.514286-26.624 11.483429-1.718857 22.966857-3.437714 26.514286-4.278857 8.813714-2.56 10.605714-1.718857 10.605714 2.56z m419.620571-0.841143c0 1.718857-0.914286 5.12-0.914285 7.716571l-0.877715 4.278857 10.605715-5.12c54.784-27.465143 75.995429-5.156571 60.086857 65.206858-3.547429 15.433143-7.972571 37.741714-10.605715 48.054857-1.755429 11.154286-4.388571 20.589714-5.302857 21.430857-3.547429 3.437714-55.661714 2.56-54.784 0 0-1.718857 3.547429-15.433143 7.094857-30.866286 14.994286-62.646857 14.994286-70.363429 1.755429-70.363428-10.605714 0-15.908571 3.401143-17.664 11.154285a1933.385143 1933.385143 0 0 0-17.664 82.358857l-1.792 9.435429-27.392 0.877714c-33.536 0.841143-30.902857 4.278857-22.966857-27.465143 8.850286-34.340571 15.030857-66.084571 19.456-89.234285 3.510857-22.308571 0.877714-19.748571 22.966857-23.186286 9.728-1.718857 22.089143-3.437714 26.514286-4.278857 8.813714-4.315429 11.483429-3.437714 11.483428 0z m536.210286-0.877714c3.547429 52.370286 4.425143 67.803429 4.425143 68.644571 0 0.877714 7.936-12.873143 16.786286-29.988571 17.664-34.377143 14.116571-30.939429 33.572571-33.499429 5.302857-0.841143 15.908571-2.56 23.844571-4.278857 19.456-3.437714 19.456-5.156571-2.633142 32.585143-30.061714 50.651429-71.570286 121.856-86.601143 147.602285-45.056 79.798857-45.056 79.798857-83.017143 80.676572l-22.966857 0.841143 1.755428-5.997715c0.877714-3.437714 3.547429-10.313143 4.388572-15.469714l2.669714-9.435428h7.058286c7.972571 0 9.728-1.718857 16.822857-13.714286 2.633143-4.278857 7.058286-11.154286 8.813714-15.433143 2.633143-4.315429 11.483429-18.029714 18.541714-31.780571l14.153143-23.990858-3.547428-31.780571c-4.388571-36.900571-9.728-80.64-12.361143-93.513143-1.755429-12.032-1.755429-12.032 14.116571-13.750857 7.094857-0.841143 18.578286-3.401143 24.758857-4.278857 16.786286-5.12 18.541714-5.12 19.419429-3.437714z m-666.075429 0.877714c68.022857 11.995429 44.141714 126.976-30.061714 143.286857-50.358857 11.154286-84.809143-7.716571-84.809143-45.458286 0.914286-66.084571 51.236571-108.982857 114.834286-97.828571z m508.818286 3.437714c3.547429 1.718857 8.850286 5.12 11.52 7.68 4.388571 4.315429 4.388571 4.315429 4.388572 1.755429 0.877714-3.437714 0-3.437714 35.364571-8.594286 28.269714-4.278857 27.355429-4.278857 25.6 3.437714a5984.548571 5984.548571 0 0 0-25.6 110.701715c-6.217143 30.866286-1.792 27.428571-36.205714 26.587428h-29.184v-3.437714c0-3.437714-1.755429-5.12-3.547429-2.56-9.691429 15.433143-57.417143 9.435429-70.656-9.435429-32.694857-48.054857 37.083429-149.321143 88.32-126.171428z m-634.258286 24.868572s0 4.278857-0.914285 7.716571c-7.058286 27.465143-19.419429 83.236571-22.089143 93.549714l-2.633143 12.873143-29.147429 0.841143c-34.450286 0.877714-32.694857 2.56-25.6-18.029714 6.144-19.748571 12.361143-43.739429 15.872-69.485715 3.547429-22.308571 0-18.870857 25.6-22.308571 11.52-1.718857 23.881143-3.437714 26.514286-4.278857 7.094857-1.718857 11.483429-1.718857 12.397714-0.877714z m154.587429 177.627428a35.364571 35.364571 0 0 1-4.425143 8.594286c-1.755429 4.278857-4.388571 7.68-4.388571 7.68 52.077714 0.877714 53.869714 0.877714 52.992 3.474286l-9.728 30.866285h-75.995429l-4.388571 3.437715c-9.728 8.594286-60.964571 19.748571-60.964572 12.873142l9.728-30.902857h7.058286c12.361143 0 14.994286-2.56 25.6-20.589714l8.850286-16.310857c45.933714-0.841143 55.661714 0 55.661714 0.877714z m115.712 0c0 0.841143-0.877714 5.12-2.633143 10.313143a38.144 38.144 0 0 0-2.669714 9.435429s4.425143-1.718857 9.728-6.034286c19.419429-12.873143 36.205714-15.433143 85.686857-15.433143 19.456 0 36.205714 0 37.12 0.841143 0.877714 1.718857-28.269714 94.390857-32.694857 102.985143-6.217143 11.154286-12.361143 17.188571-22.089143 21.467428l-8.850286 3.401143-50.322285 0.877714-50.358858 0.841143-8.850285 29.184c-17.664 55.771429-17.664 51.492571 7.972571 48.932572 20.297143-1.718857 19.419429-3.437714 13.238857 17.152l-5.302857 17.188571h-25.6c-55.661714 0.841143-62.756571-2.596571-57.417143-24.905143 2.633143-11.154286 66.230857-215.405714 67.108572-217.124571 0.877714-0.841143 45.933714-0.841143 45.933714 0.877714z m232.338286 0c0 0.841143-0.877714 3.437714-1.755429 6.875429-2.669714 8.557714-2.669714 8.557714 8.813714 2.56 15.030857-7.716571 50.358857-10.313143 122.806858-10.313143h22.966857v10.313143c0 12.032 0.877714 12.873143 11.483428 14.592l7.972572 0.841143-4.425143 15.469714-4.388572 15.433143h-15.945142c-40.594286 0.877714-46.811429-3.437714-47.689143-26.587429v-11.154286l-2.669715 7.68-2.633142 8.594286h-8.850286c-4.388571 0-8.813714 0-8.813714 0.877714 0 0-43.300571 139.849143-49.481143 159.597715-0.877714 1.718857 0 2.56 5.302857 2.56 7.936 0 7.936 0 5.302857 6.875428-2.669714 7.716571-2.669714 7.716571 6.180571 7.716572 6.217143 0 9.728-0.841143 14.153143-3.437715 6.180571-3.401143 6.180571-2.56 34.450286-41.179428l11.483429-16.310857h-23.881143c-29.147429 0-26.477714 1.718857-21.211429-15.433143l4.425143-13.714286h58.331429c5.302857-18.029714 7.058286-23.186286 7.058285-24.027428 0-0.877714-12.361143-0.877714-28.269714-0.877715h-28.269714l4.388571-15.433143 4.461714-15.433142h79.506286c43.264 0 79.506286 0 79.506286 0.841142 0 0.877714-1.792 7.716571-4.425143 15.433143l-4.388571 14.628572-26.550858 0.841143-26.477714 0.841142c-4.425143 12.873143-6.217143 18.870857-7.094857 20.589715l-0.877714 3.437714h25.6c30.061714 0 28.306286-1.718857 22.125714 15.469714l-4.425143 13.714286H1323.52l-4.425143 5.12-4.388571 5.156571h22.930285l3.547429 20.626286c3.510857 23.149714 3.510857 23.149714 14.994286 23.149714 8.850286 0 8.850286-1.718857 2.669714 18.870858l-5.302857 17.188571h-16.786286c-29.147429 0-34.450286-4.315429-39.753143-33.499429l-2.633143-18.870857-10.605714 13.750857c-29.147429 38.619429-30.939429 39.460571-68.022857 39.460572-23.881143 0-23.881143 0-20.333714-6.875429 0.877714-3.437714 0.877714-3.437714-6.180572-3.437714s-7.058286 0-8.850285 5.156571l-0.877715 5.156572H1130.057143l0.877714-2.56c2.633143-8.594286 7.058286-7.753143-46.811428-7.753143-46.811429 0-49.481143 0-48.64-2.56l4.461714-15.433143c5.302857-15.469714 4.388571-15.469714 9.691428-15.469714 4.425143 0 4.425143 0 6.217143-5.997714 41.508571-134.729143 54.747429-177.627429 56.502857-183.625143l3.547429-11.154286h24.722286c15.908571 0 27.428571 0.841143 27.428571 1.718857z m-313.6 73.801143l-9.728 30.025143h-53.028572c-5.266286 17.188571-7.021714 22.308571-7.936 24.027428-0.877714 2.56 0.914286 2.56 26.514286 2.56 14.994286 0 27.392 0.877714 27.392 0.877715 0 0.841143-0.877714 2.56-1.755429 5.12a143.104 143.104 0 0 0-4.425142 15.469714l-3.547429 11.154286h-54.747429l-6.217142 20.589714c-8.813714 29.184-7.936 30.025143 25.636571 25.746286 14.116571-1.718857 13.238857-3.437714 7.058286 17.188571l-5.302857 17.115429h-37.083429c-58.331429 0-59.209143-1.682286-43.300571-50.614857 4.388571-15.433143 8.850286-28.306286 8.850285-28.306286s-6.217143-0.877714-15.030857-0.877714c-7.936 0-14.994286 0-14.994286-0.841143 6.144-21.467429 8.777143-28.306286 8.777143-30.025143 0.914286-1.718857 2.669714-2.56 15.945143-2.56h14.994286l7.094857-26.624h-14.153143c-10.605714 0-14.116571 0-14.116571-1.718857s7.936-26.587429 8.813714-29.184c1.792-1.718857 135.168-0.841143 134.290286 0.877714z m171.373714 61.805714c0 1.682286-1.755429 6.838857-2.633143 11.117715-5.302857 24.027429-12.397714 29.184-40.630857 30.902857-9.728 0.841143-18.578286 1.718857-18.578286 1.718857-1.755429 2.56-1.755429 23.149714 0 26.587428l2.669715 3.437715 17.664-0.877715c9.728-0.841143 17.664-0.841143 17.664-0.841142 0 1.718857-9.728 31.744-10.605715 32.621714-1.755429 1.718857-55.661714 0.841143-62.72-1.718857-10.605714-3.437714-10.605714-2.56-9.728-56.649143l0.877715-47.177143h45.056v17.993143h8.850285c9.728 0 10.605714-0.841143 14.994286-12.873143l2.669714-6.838857h17.664c15.908571 0.841143 17.664 0.841143 16.822857 2.56zM1108.845714 338.651429l-9.691428 41.179428h13.238857c68.022857 1.718857 96.292571-74.642286 30.061714-79.798857-10.605714-0.841143-20.333714-1.718857-21.211428-1.718857-2.633143 0-2.633143 2.56-12.361143 40.338286z m-351.561143 58.331428c-16.822857 6.875429-32.694857 68.644571-19.456 78.116572 9.728 7.68 23.881143-5.156571 30.939429-26.624 11.483429-39.497143 7.936-58.331429-11.483429-51.492572z m526.518858 4.315429c-17.664 8.557714-30.939429 69.485714-17.664 76.361143 17.664 9.435429 40.594286-23.186286 40.594285-58.368 0-16.274286-9.691429-24.027429-22.930285-17.993143z m-356.937143 204.214857l-4.388572 15.433143c-2.669714 7.716571-4.388571 14.628571-5.302857 15.469714 0 0.841143 4.388571-0.877714 10.605714-4.315429 17.664-8.557714 22.966857-10.276571 48.566858-11.154285l22.089142-0.841143c3.547429-10.313143 4.425143-14.628571 4.425143-15.469714 0.877714-0.841143-75.081143-0.841143-75.958857 0.877714z m-14.994286 49.737143l-3.547429 13.750857 75.995429-0.841143 4.388571-13.750857c-60.050286 0-76.836571 0-76.836571 0.877714z m240.274286-30.866286c-3.510857 11.154286-6.180571 19.748571-5.266286 19.748571l10.605714-3.437714c5.266286-1.718857 14.994286-4.278857 20.297143-5.12 5.302857-0.877714 9.728-1.755429 10.605714-1.755428 0 0 8.813714-26.587429 8.813715-27.428572 0 0-8.813714-0.877714-19.419429-0.877714h-19.419428l-6.217143 18.870857z m-14.116572 43.776c0 0.841143-3.547429 9.435429-6.217143 19.748571-3.510857 10.276571-6.144 19.748571-6.144 19.748572 0 0.841143 4.388571-0.877714 10.605715-3.474286 6.180571-2.56 14.994286-5.12 20.297143-5.997714 11.483429-1.718857 12.361143-2.56 13.275428-6.875429 0.877714-1.718857 2.633143-8.557714 4.388572-13.714285l3.547428-10.313143h-19.419428c-10.605714 0-20.333714 0-20.333715 0.877714z m-30.939428 98.669714l38.875428 0.841143c7.972571-25.709714 10.605714-34.304 10.605715-35.181714l-38.875429-1.682286-10.605714 36.022857z" fill="#FFFFFF" p-id="2806"></path></svg>